<svg width="99" height="31" viewBox="0 0 99 31" fill="none" xmlns="http://www.w3.org/2000/svg">
<path d="M16.491 7.11843L16.8882 13.0253H16.491C15.9614 11.2571 15.2054 9.98431 14.2231 9.20697C13.2407 8.42964 12.0619 8.04098 10.6866 8.04098C9.53345 8.04098 8.49131 8.33568 7.56023 8.92509C6.62914 9.50595 5.89452 10.437 5.35637 11.7184C4.82676 12.9997 4.56195 14.5928 4.56195 16.4977C4.56195 18.0694 4.81394 19.4319 5.31793 20.585C5.82191 21.7382 6.57789 22.6223 7.58585 23.2374C8.60236 23.8524 9.75982 24.1599 11.0582 24.1599C12.1858 24.1599 13.1809 23.9207 14.0437 23.4424C14.9064 22.9555 15.8546 21.9945 16.8882 20.5594L17.2854 20.8157C16.4141 22.3618 15.3976 23.4936 14.2359 24.2112C13.0741 24.9287 11.6946 25.2875 10.0972 25.2875C7.21854 25.2875 4.98906 24.2197 3.40877 22.0842C2.22996 20.4954 1.64056 18.6246 1.64056 16.472C1.64056 14.738 2.02922 13.1449 2.80655 11.6927C3.58388 10.2406 4.65164 9.11728 6.00984 8.32287C7.37657 7.51991 8.86717 7.11843 10.4816 7.11843C11.7373 7.11843 12.9759 7.42595 14.1974 8.04098C14.5562 8.2289 14.8125 8.32287 14.9662 8.32287C15.1969 8.32287 15.3976 8.24172 15.5684 8.07942C15.7905 7.84878 15.9486 7.52845 16.0425 7.11843H16.491ZM22.4619 6.66997V15.2548C23.4101 14.2126 24.1618 13.5464 24.717 13.2559C25.2723 12.957 25.8275 12.8075 26.3827 12.8075C27.049 12.8075 27.6213 12.9911 28.0997 13.3584C28.578 13.7257 28.9325 14.3023 29.1632 15.0882C29.3255 15.6349 29.4066 16.6343 29.4066 18.0865V22.2379C29.4066 22.9811 29.4664 23.4894 29.586 23.7627C29.6714 23.9677 29.8167 24.13 30.0217 24.2496C30.2267 24.3692 30.6025 24.429 31.1492 24.429V24.8903H25.3833V24.429H25.6524C26.1991 24.429 26.5792 24.3478 26.7928 24.1855C27.0063 24.0147 27.1558 23.767 27.2412 23.4424C27.2668 23.3057 27.2796 22.9042 27.2796 22.2379V18.0865C27.2796 16.8052 27.2113 15.9638 27.0746 15.5623C26.9465 15.1608 26.7372 14.8618 26.4468 14.6654C26.1564 14.4604 25.8061 14.3579 25.3961 14.3579C24.9776 14.3579 24.5419 14.4689 24.0892 14.691C23.6364 14.9131 23.094 15.3616 22.4619 16.0364V22.2379C22.4619 23.0409 22.5046 23.5406 22.59 23.7371C22.684 23.9335 22.8506 24.1001 23.0898 24.2368C23.3375 24.3649 23.7603 24.429 24.3583 24.429V24.8903H18.5411V24.429C19.0622 24.429 19.4722 24.3478 19.7711 24.1855C19.942 24.1001 20.0787 23.9378 20.1812 23.6986C20.2837 23.4595 20.3349 22.9726 20.3349 22.2379V11.6158C20.3349 10.2747 20.3008 9.45042 20.2324 9.14291C20.1726 8.83539 20.0744 8.62611 19.9377 8.51507C19.8096 8.40402 19.6345 8.34849 19.4124 8.34849C19.233 8.34849 18.9426 8.41683 18.5411 8.5535L18.3617 8.10504L21.8725 6.66997H22.4619ZM38.7858 23.1989C37.5814 24.13 36.8254 24.6682 36.5179 24.8134C36.0567 25.0269 35.5655 25.1337 35.0444 25.1337C34.2329 25.1337 33.5624 24.8561 33.0327 24.3009C32.5117 23.7456 32.2511 23.0153 32.2511 22.1098C32.2511 21.5375 32.3793 21.042 32.6355 20.6235C32.9858 20.0426 33.5923 19.4959 34.455 18.9834C35.3263 18.4709 36.7699 17.8473 38.7858 17.1127V16.6514C38.7858 15.4811 38.5979 14.6782 38.2221 14.2425C37.8548 13.8069 37.3166 13.5891 36.6076 13.5891C36.0695 13.5891 35.6424 13.7343 35.3263 14.0247C35.0017 14.3151 34.8394 14.6483 34.8394 15.0241L34.865 15.7673C34.865 16.1602 34.7625 16.4635 34.5575 16.677C34.361 16.8906 34.1005 16.9974 33.7759 16.9974C33.4599 16.9974 33.1993 16.8863 32.9943 16.6642C32.7978 16.4421 32.6996 16.1389 32.6996 15.7545C32.6996 15.0199 33.0755 14.345 33.8272 13.73C34.5789 13.115 35.6338 12.8075 36.992 12.8075C38.0341 12.8075 38.8884 12.9826 39.5546 13.3328C40.0586 13.5976 40.4302 14.0119 40.6694 14.5757C40.8231 14.943 40.9 15.6947 40.9 16.8308V20.8157C40.9 21.9347 40.9214 22.6223 40.9641 22.8786C41.0068 23.1263 41.0751 23.2929 41.1691 23.3783C41.2716 23.4637 41.3869 23.5064 41.515 23.5064C41.6517 23.5064 41.7713 23.4765 41.8738 23.4167C42.0532 23.3057 42.3992 22.9939 42.9117 22.4814V23.1989C41.955 24.4802 41.041 25.1209 40.1697 25.1209C39.7511 25.1209 39.418 24.9757 39.1702 24.6852C38.9225 24.3948 38.7944 23.8994 38.7858 23.1989ZM38.7858 22.3661V17.8943C37.496 18.4068 36.6631 18.7698 36.2873 18.9834C35.6125 19.3593 35.1298 19.7522 34.8394 20.1622C34.549 20.5722 34.4038 21.0207 34.4038 21.5076C34.4038 22.1226 34.5874 22.6351 34.9547 23.0452C35.322 23.4466 35.7449 23.6474 36.2232 23.6474C36.8724 23.6474 37.7266 23.2203 38.7858 22.3661ZM47.2169 15.2932C48.5922 13.6361 49.9034 12.8075 51.1505 12.8075C51.7912 12.8075 52.3422 12.9698 52.8034 13.2944C53.2647 13.6104 53.632 14.1358 53.9054 14.8704C54.0933 15.3829 54.1872 16.1688 54.1872 17.228V22.2379C54.1872 22.9811 54.247 23.4851 54.3666 23.7499C54.4606 23.9634 54.6101 24.13 54.8151 24.2496C55.0286 24.3692 55.4173 24.429 55.9811 24.429V24.8903H50.1767V24.429H50.4202C50.9669 24.429 51.347 24.3478 51.5606 24.1855C51.7826 24.0147 51.9364 23.767 52.0218 23.4424C52.056 23.3142 52.0731 22.9128 52.0731 22.2379V17.433C52.0731 16.3652 51.9321 15.5922 51.6502 15.1138C51.3769 14.6269 50.9114 14.3835 50.2536 14.3835C49.2371 14.3835 48.2249 14.9387 47.2169 16.0492V22.2379C47.2169 23.0324 47.2639 23.5235 47.3578 23.7114C47.4774 23.9592 47.6397 24.1428 47.8447 24.2624C48.0583 24.3735 48.4854 24.429 49.1261 24.429V24.8903H43.3217V24.429H43.578C44.1759 24.429 44.5774 24.2795 44.7824 23.9805C44.996 23.673 45.1027 23.0921 45.1027 22.2379V17.8815C45.1027 16.472 45.0686 15.6135 45.0002 15.306C44.9404 14.9985 44.8422 14.7892 44.7055 14.6782C44.5774 14.5671 44.4023 14.5116 44.1802 14.5116C43.941 14.5116 43.6548 14.5757 43.3217 14.7038L43.1295 14.2425L46.6659 12.8075H47.2169V15.2932ZM60.3376 15.2932C61.7128 13.6361 63.024 12.8075 64.2712 12.8075C64.9118 12.8075 65.4628 12.9698 65.9241 13.2944C66.3854 13.6104 66.7527 14.1358 67.026 14.8704C67.2139 15.3829 67.3079 16.1688 67.3079 17.228V22.2379C67.3079 22.9811 67.3677 23.4851 67.4873 23.7499C67.5813 23.9634 67.7307 24.13 67.9357 24.2496C68.1493 24.3692 68.538 24.429 69.1017 24.429V24.8903H63.2974V24.429H63.5408C64.0875 24.429 64.4677 24.3478 64.6812 24.1855C64.9033 24.0147 65.0571 23.767 65.1425 23.4424C65.1767 23.3142 65.1937 22.9128 65.1937 22.2379V17.433C65.1937 16.3652 65.0528 15.5922 64.7709 15.1138C64.4976 14.6269 64.032 14.3835 63.3743 14.3835C62.3578 14.3835 61.3455 14.9387 60.3376 16.0492V22.2379C60.3376 23.0324 60.3845 23.5235 60.4785 23.7114C60.5981 23.9592 60.7604 24.1428 60.9654 24.2624C61.179 24.3735 61.6061 24.429 62.2467 24.429V24.8903H56.4424V24.429H56.6986C57.2966 24.429 57.698 24.2795 57.9031 23.9805C58.1166 23.673 58.2234 23.0921 58.2234 22.2379V17.8815C58.2234 16.472 58.1892 15.6135 58.1209 15.306C58.0611 14.9985 57.9629 14.7892 57.8262 14.6782C57.698 14.5671 57.5229 14.5116 57.3008 14.5116C57.0617 14.5116 56.7755 14.5757 56.4424 14.7038L56.2502 14.2425L59.7866 12.8075H60.3376V15.2932ZM72.0103 17.574C72.0018 19.3165 72.4246 20.6833 73.2788 21.6742C74.133 22.665 75.1367 23.1605 76.2899 23.1605C77.0587 23.1605 77.725 22.9512 78.2888 22.5326C78.8611 22.1055 79.3394 21.3795 79.7238 20.3544L80.121 20.6107C79.9417 21.7809 79.4206 22.8487 78.5578 23.814C77.6951 24.7707 76.6145 25.249 75.3161 25.249C73.9067 25.249 72.698 24.7023 71.69 23.6089C70.6906 22.507 70.1909 21.0292 70.1909 19.1756C70.1909 17.1682 70.7034 15.605 71.7284 14.486C72.762 13.3584 74.0562 12.7947 75.6108 12.7947C76.9263 12.7947 78.0069 13.2303 78.8525 14.1016C79.6982 14.9643 80.121 16.1218 80.121 17.574H72.0103ZM72.0103 16.8308H77.4431C77.4004 16.0791 77.3107 15.5495 77.174 15.242C76.9605 14.7636 76.6401 14.3878 76.213 14.1144C75.7945 13.8411 75.3546 13.7044 74.8933 13.7044C74.1843 13.7044 73.5479 13.982 72.9841 14.5372C72.4289 15.0839 72.1043 15.8485 72.0103 16.8308ZM85.7332 6.66997V22.2379C85.7332 22.9726 85.7844 23.4595 85.887 23.6986C85.998 23.9378 86.1646 24.1215 86.3867 24.2496C86.6088 24.3692 87.0231 24.429 87.6295 24.429V24.8903H81.8764V24.429C82.4146 24.429 82.7819 24.3735 82.9784 24.2624C83.1748 24.1514 83.3286 23.9677 83.4396 23.7114C83.5507 23.4552 83.6062 22.964 83.6062 22.2379V11.5774C83.6062 10.2534 83.5763 9.44188 83.5165 9.14291C83.4567 8.83539 83.3585 8.62611 83.2218 8.51507C83.0937 8.40402 82.9271 8.34849 82.7221 8.34849C82.5 8.34849 82.2181 8.41683 81.8764 8.5535L81.6586 8.10504L85.1566 6.66997H85.7332Z" fill="white"/>
<rect x="90.2043" y="25.907" width="8.69311" height="1.45785" fill="white"/>
</svg>
