<svg width="55" height="35" viewBox="0 0 55 35" fill="none" xmlns="http://www.w3.org/2000/svg">
<rect x="0.64209" y="0.890259" width="54" height="34" rx="6" fill="#298DFF" fill-opacity="0.12"/>
<path d="M13.8406 22.8903V11.9812H15.4866V21.4734H20.4297V22.8903H13.8406ZM22.1796 22.8903V14.7084H23.7722V22.8903H22.1796ZM22.9839 13.446C22.7069 13.446 22.469 13.3537 22.2701 13.169C22.0748 12.9808 21.9771 12.7571 21.9771 12.4979C21.9771 12.2351 22.0748 12.0114 22.2701 11.8267C22.469 11.6385 22.7069 11.5444 22.9839 11.5444C23.2609 11.5444 23.497 11.6385 23.6923 11.8267C23.8912 12.0114 23.9906 12.2351 23.9906 12.4979C23.9906 12.7571 23.8912 12.9808 23.6923 13.169C23.497 13.3537 23.2609 13.446 22.9839 13.446ZM32.9142 14.7084L29.9472 22.8903H28.2427L25.2704 14.7084H26.9802L29.0523 21.0046H29.1376L31.2043 14.7084H32.9142ZM37.659 23.0554C36.8528 23.0554 36.1586 22.8832 35.5762 22.5387C34.9974 22.1907 34.5499 21.7024 34.2339 21.0739C33.9214 20.4418 33.7651 19.7013 33.7651 18.8526C33.7651 18.0145 33.9214 17.2759 34.2339 16.6367C34.5499 15.9975 34.9903 15.4986 35.5549 15.1399C36.1231 14.7812 36.7872 14.6019 37.5471 14.6019C38.0087 14.6019 38.4562 14.6783 38.8894 14.831C39.3227 14.9837 39.7115 15.2234 40.056 15.5501C40.4004 15.8768 40.6721 16.3011 40.871 16.8231C41.0698 17.3416 41.1693 17.9719 41.1693 18.7141V19.2788H34.6653V18.0856H39.6085C39.6085 17.6665 39.5233 17.2954 39.3528 16.9723C39.1824 16.6456 38.9427 16.3881 38.6337 16.1999C38.3283 16.0117 37.9697 15.9176 37.5578 15.9176C37.1103 15.9176 36.7197 16.0277 36.3859 16.2479C36.0556 16.4645 35.7999 16.7486 35.6188 17.1001C35.4413 17.4481 35.3525 17.8263 35.3525 18.2347V19.1669C35.3525 19.7138 35.4484 20.179 35.6401 20.5625C35.8354 20.946 36.1071 21.239 36.4551 21.4414C36.8031 21.6403 37.2097 21.7397 37.6749 21.7397C37.9768 21.7397 38.252 21.6971 38.5006 21.6118C38.7492 21.5231 38.964 21.3917 39.1451 21.2177C39.3262 21.0437 39.4647 20.8288 39.5606 20.5731L41.068 20.8448C40.9473 21.2887 40.7307 21.6775 40.4182 22.0114C40.1092 22.3416 39.7204 22.5991 39.2516 22.7837C38.7864 22.9648 38.2555 23.0554 37.659 23.0554Z" fill="#3392FF"/>
</svg>
