<svg width="107" height="31" viewBox="0 0 107 31" fill="none" xmlns="http://www.w3.org/2000/svg">
<path d="M87.5499 28.9966C88.0051 29.021 88.6518 29.021 89.3225 28.9477C91.4305 28.8012 93.2989 28.0441 94.6403 26.7741C96.2692 25.1866 97.3471 22.7688 97.3471 19.3741C97.3471 15.4909 95.4308 12.609 91.7898 12.609C88.4841 12.609 86.1845 15.2222 86.1845 18.275C86.1845 21.2058 88.1967 23.184 90.9035 23.184C92.3886 23.184 93.5145 22.6711 94.305 21.7919H94.3529C94.0654 23.3061 93.3708 24.5028 92.3407 25.3332C91.4784 26.0414 90.3525 26.4566 89.1788 26.5543C88.4841 26.6276 88.029 26.652 87.5499 26.6031V28.9966ZM91.6461 14.8315C93.5624 14.8315 94.3529 16.6632 94.3529 18.8123C94.3529 19.2275 94.281 19.4718 94.1852 19.6916C93.7301 20.4242 92.8677 21.0104 91.67 21.0104C90.0411 21.0104 89.1069 19.7404 89.1069 18.1041C89.1069 16.1747 90.1609 14.8315 91.6461 14.8315Z" fill="white"/>
<path d="M103.842 28.7523H106.692V12.8777H104.249L100.44 14.7826L100.943 17.0539L103.794 15.5886H103.842V28.7523Z" fill="white"/>
<path d="M52.2363 28.756H55.0559L54.1395 12.8724H50.3801L48.1949 19.2353C47.584 21.097 47.0436 23.053 46.6206 24.7733H46.5501C46.1507 23.0059 45.6573 21.1206 45.0934 19.2588L43.0257 12.8724H39.2192L38.1619 28.756H40.864L41.2164 22.3696C41.3339 20.2015 41.4279 17.6799 41.4984 15.606H41.5454C41.9683 17.5856 42.5322 19.7537 43.1431 21.7804L45.2578 28.5675H47.4665L49.7927 21.6862C50.4976 19.683 51.1555 17.5385 51.6724 15.606H51.7429C51.7194 17.7506 51.8369 20.225 51.9309 22.2753L52.2363 28.756Z" fill="white"/>
<path d="M57.2916 28.0019C58.1609 28.5439 59.8997 29.0153 61.5915 29.0153C65.6564 29.0153 67.5831 26.8 67.5831 24.2313C67.5831 21.9454 66.2673 20.555 63.5182 19.5181C61.4035 18.6932 60.4871 18.1276 60.4871 16.9022C60.4871 15.9595 61.2625 14.9933 63.0952 14.9933C64.5755 14.9933 65.6799 15.4411 66.2673 15.7474L66.9487 13.4144C66.1263 12.9902 64.881 12.6131 63.1657 12.6131C59.7117 12.6131 57.55 14.5691 57.55 17.185C57.55 19.4709 59.2183 20.8613 61.8499 21.804C63.8471 22.5345 64.646 23.2415 64.646 24.4434C64.646 25.7396 63.6122 26.6115 61.7794 26.6115C60.2991 26.6115 58.8659 26.1402 57.9495 25.5982L57.2916 28.0019Z" fill="white"/>
<path d="M82.8689 19.9894H77.2767V22.2753H80.0728V26.258C79.6969 26.423 78.945 26.5644 77.8876 26.5644C74.5981 26.5644 72.3894 24.4198 72.3894 20.8142C72.3894 17.1143 74.7626 15.1112 78.1461 15.1112C79.8143 15.1112 80.8717 15.3939 81.7411 15.7946L82.3755 13.4615C81.6471 13.108 80.1198 12.7074 78.1696 12.7074C72.9298 12.7074 69.3819 15.9124 69.3584 20.9556C69.3584 23.3594 70.1572 25.4568 71.567 26.8C73.0708 28.2376 75.115 28.921 77.7936 28.921C79.8848 28.921 81.8585 28.4026 82.8689 28.0255V19.9894Z" fill="white"/>
<path fillRule="evenodd" clipRule="evenodd" d="M33.4744 0.890259L0.661865 12.609V16.1246V29.0153L33.4744 30.8903V5.81213V0.890259ZM33.4744 5.81213L15.8962 21.0465L0.661865 16.1246L15.6619 18.7028L33.4744 5.81213Z" fill="white"/>
</svg>
