<svg width="97" height="33" viewBox="0 0 97 33" fill="none" xmlns="http://www.w3.org/2000/svg">
<rect x="0.312012" y="0.110352" width="96.64" height="32" rx="6" fill="#298DFF" fill-opacity="0.12"/>
<path d="M17.5215 16.5734H19.1408L20.2808 18.0596L20.8188 18.7201L22.6352 21.0905H20.9519L19.7374 19.5084L19.322 18.9331L17.5215 16.5734ZM22.9867 14.6558C22.9867 15.8206 22.7737 16.822 22.3475 17.6601C21.9214 18.4946 21.3372 19.1373 20.595 19.5883C19.8564 20.0358 19.0166 20.2595 18.0755 20.2595C17.1309 20.2595 16.2875 20.0358 15.5453 19.5883C14.8067 19.1373 14.2243 18.4928 13.7982 17.6547C13.372 16.8167 13.159 15.817 13.159 14.6558C13.159 13.491 13.372 12.4914 13.7982 11.6569C14.2243 10.8188 14.8067 10.176 15.5453 9.7286C16.2875 9.27761 17.1309 9.05211 18.0755 9.05211C19.0166 9.05211 19.8564 9.27761 20.595 9.7286C21.3372 10.176 21.9214 10.8188 22.3475 11.6569C22.7737 12.4914 22.9867 13.491 22.9867 14.6558ZM21.3568 14.6558C21.3568 13.768 21.2129 13.0205 20.9253 12.4133C20.6412 11.8025 20.2506 11.3408 19.7534 11.0283C19.2598 10.7123 18.7005 10.5542 18.0755 10.5542C17.447 10.5542 16.8859 10.7123 16.3923 11.0283C15.8987 11.3408 15.508 11.8025 15.2204 12.4133C14.9363 13.0205 14.7943 13.768 14.7943 14.6558C14.7943 15.5436 14.9363 16.2929 15.2204 16.9037C15.508 17.5109 15.8987 17.9726 16.3923 18.2886C16.8859 18.6011 17.447 18.7574 18.0755 18.7574C18.7005 18.7574 19.2598 18.6011 19.7534 18.2886C20.2506 17.9726 20.6412 17.5109 20.9253 16.9037C21.2129 16.2929 21.3568 15.5436 21.3568 14.6558ZM30.0939 16.7172V11.9285H31.6919V20.1104H30.1258V18.6934H30.0406C29.8524 19.1302 29.5506 19.4942 29.1351 19.7854C28.7231 20.0731 28.21 20.2169 27.5957 20.2169C27.0701 20.2169 26.6049 20.1015 26.2001 19.8706C25.7988 19.6363 25.4827 19.29 25.2519 18.8319C25.0246 18.3738 24.911 17.8074 24.911 17.1327V11.9285H26.5037V16.941C26.5037 17.4985 26.6582 17.9424 26.9671 18.2726C27.2761 18.6029 27.6773 18.768 28.1709 18.768C28.4692 18.768 28.7658 18.6934 29.0605 18.5443C29.3588 18.3952 29.6056 18.1697 29.8009 17.8678C29.9998 17.566 30.0974 17.1824 30.0939 16.7172ZM37.3582 20.2755C36.5521 20.2755 35.8578 20.1032 35.2754 19.7588C34.6966 19.4108 34.2492 18.9225 33.9331 18.2939C33.6206 17.6618 33.4644 16.9214 33.4644 16.0727C33.4644 15.2346 33.6206 14.496 33.9331 13.8568C34.2492 13.2176 34.6895 12.7187 35.2541 12.36C35.8223 12.0013 36.4864 11.822 37.2463 11.822C37.708 11.822 38.1554 11.8983 38.5886 12.051C39.0219 12.2037 39.4107 12.4434 39.7552 12.7702C40.0997 13.0969 40.3713 13.5212 40.5702 14.0432C40.769 14.5617 40.8685 15.192 40.8685 15.9342V16.4988H34.3646V15.3057H39.3078C39.3078 14.8866 39.2225 14.5155 39.0521 14.1924C38.8816 13.8657 38.6419 13.6082 38.333 13.42C38.0276 13.2318 37.6689 13.1377 37.257 13.1377C36.8095 13.1377 36.4189 13.2478 36.0851 13.468C35.7548 13.6846 35.4992 13.9687 35.318 14.3202C35.1405 14.6682 35.0517 15.0464 35.0517 15.4548V16.387C35.0517 16.9339 35.1476 17.3991 35.3394 17.7826C35.5347 18.1661 35.8063 18.4591 36.1543 18.6615C36.5024 18.8604 36.909 18.9598 37.3742 18.9598C37.676 18.9598 37.9512 18.9172 38.1998 18.8319C38.4484 18.7432 38.6632 18.6118 38.8443 18.4378C39.0254 18.2638 39.1639 18.0489 39.2598 17.7932L40.7673 18.0649C40.6465 18.5088 40.4299 18.8976 40.1174 19.2314C39.8085 19.5617 39.4196 19.8192 38.9509 20.0038C38.4857 20.1849 37.9548 20.2755 37.3582 20.2755ZM48.7666 13.926L47.3231 14.1817C47.2627 13.9971 47.1669 13.8213 47.0355 13.6544C46.9076 13.4875 46.7336 13.3508 46.5135 13.2442C46.2933 13.1377 46.0181 13.0844 45.6878 13.0844C45.2368 13.0844 44.8604 13.1856 44.5585 13.3881C44.2567 13.5869 44.1058 13.8444 44.1058 14.1604C44.1058 14.4339 44.207 14.654 44.4094 14.8209C44.6118 14.9878 44.9385 15.1246 45.3895 15.2311L46.6892 15.5294C47.4421 15.7034 48.0032 15.9715 48.3725 16.3337C48.7418 16.6959 48.9264 17.1665 48.9264 17.7453C48.9264 18.2354 48.7844 18.6721 48.5003 19.0557C48.2198 19.4356 47.8274 19.7339 47.3231 19.9506C46.8224 20.1672 46.2418 20.2755 45.5813 20.2755C44.6651 20.2755 43.9176 20.0802 43.3387 19.6895C42.7599 19.2954 42.4048 18.7361 42.2734 18.0116L43.8128 17.7773C43.9087 18.1785 44.1058 18.4822 44.4041 18.6881C44.7024 18.8905 45.0912 18.9917 45.5706 18.9917C46.0926 18.9917 46.5099 18.8834 46.8224 18.6668C47.1349 18.4466 47.2911 18.1785 47.2911 17.8625C47.2911 17.6068 47.1953 17.392 47.0035 17.218C46.8153 17.0439 46.5259 16.9126 46.1353 16.8238L44.7503 16.5202C43.9868 16.3461 43.4222 16.0692 43.0564 15.6892C42.6942 15.3092 42.5131 14.828 42.5131 14.2456C42.5131 13.7627 42.648 13.3401 42.9179 12.9779C43.1878 12.6157 43.5607 12.3334 44.0365 12.1309C44.5124 11.925 45.0575 11.822 45.6718 11.822C46.5561 11.822 47.2521 12.0138 47.7599 12.3973C48.2677 12.7773 48.6033 13.2868 48.7666 13.926ZM54.4968 11.9285V13.2069H50.0277V11.9285H54.4968ZM51.2263 9.96831H52.8189V17.708C52.8189 18.017 52.8651 18.2496 52.9574 18.4058C53.0498 18.5585 53.1687 18.6633 53.3143 18.7201C53.4635 18.7733 53.625 18.8 53.7991 18.8C53.9269 18.8 54.0388 18.7911 54.1346 18.7733C54.2305 18.7556 54.3051 18.7414 54.3584 18.7307L54.646 20.0464C54.5537 20.0819 54.4223 20.1175 54.2518 20.153C54.0814 20.192 53.8683 20.2133 53.6126 20.2169C53.1936 20.224 52.803 20.1494 52.4407 19.9932C52.0785 19.8369 51.7856 19.5954 51.5618 19.2687C51.3381 18.942 51.2263 18.5319 51.2263 18.0383V9.96831ZM56.2587 20.1104V11.9285H57.8513V20.1104H56.2587ZM57.063 10.6661C56.786 10.6661 56.5481 10.5738 56.3492 10.3891C56.1539 10.2009 56.0562 9.97718 56.0562 9.71795C56.0562 9.45517 56.1539 9.23145 56.3492 9.04679C56.5481 8.85858 56.786 8.76447 57.063 8.76447C57.34 8.76447 57.5761 8.85858 57.7714 9.04679C57.9703 9.23145 58.0697 9.45517 58.0697 9.71795C58.0697 9.97718 57.9703 10.2009 57.7714 10.3891C57.5761 10.5738 57.34 10.6661 57.063 10.6661ZM63.4404 20.2755C62.6733 20.2755 62.004 20.0997 61.4322 19.7481C60.8605 19.3966 60.4166 18.9047 60.1005 18.2726C59.7845 17.6405 59.6265 16.9019 59.6265 16.0567C59.6265 15.208 59.7845 14.4658 60.1005 13.8302C60.4166 13.1945 60.8605 12.7009 61.4322 12.3493C62.004 11.9978 62.6733 11.822 63.4404 11.822C64.2074 11.822 64.8768 11.9978 65.4486 12.3493C66.0203 12.7009 66.4642 13.1945 66.7802 13.8302C67.0963 14.4658 67.2543 15.208 67.2543 16.0567C67.2543 16.9019 67.0963 17.6405 66.7802 18.2726C66.4642 18.9047 66.0203 19.3966 65.4486 19.7481C64.8768 20.0997 64.2074 20.2755 63.4404 20.2755ZM63.4457 18.9385C63.9429 18.9385 64.3548 18.8071 64.6815 18.5443C65.0082 18.2815 65.2497 17.9317 65.4059 17.4949C65.5657 17.0581 65.6456 16.577 65.6456 16.0514C65.6456 15.5294 65.5657 15.05 65.4059 14.6132C65.2497 14.1729 65.0082 13.8195 64.6815 13.5532C64.3548 13.2868 63.9429 13.1537 63.4457 13.1537C62.945 13.1537 62.5295 13.2868 62.1993 13.5532C61.8726 13.8195 61.6293 14.1729 61.4695 14.6132C61.3133 15.05 61.2351 15.5294 61.2351 16.0514C61.2351 16.577 61.3133 17.0581 61.4695 17.4949C61.6293 17.9317 61.8726 18.2815 62.1993 18.5443C62.5295 18.8071 62.945 18.9385 63.4457 18.9385ZM70.6248 15.2524V20.1104H69.0321V11.9285H70.5609V13.2602H70.6621C70.8503 12.827 71.145 12.479 71.5463 12.2162C71.9511 11.9534 72.4607 11.822 73.0751 11.822C73.6326 11.822 74.1209 11.9392 74.5399 12.1736C74.9589 12.4044 75.2839 12.7488 75.5147 13.2069C75.7455 13.665 75.8609 14.2314 75.8609 14.9062V20.1104H74.2682V15.0979C74.2682 14.5049 74.1138 14.0415 73.8048 13.7077C73.4959 13.3703 73.0715 13.2016 72.5317 13.2016C72.1624 13.2016 71.8339 13.2815 71.5463 13.4413C71.2622 13.6011 71.0367 13.8355 70.8698 14.1444C70.7065 14.4498 70.6248 14.8192 70.6248 15.2524ZM84.128 13.926L82.6844 14.1817C82.6241 13.9971 82.5282 13.8213 82.3968 13.6544C82.269 13.4875 82.0949 13.3508 81.8748 13.2442C81.6546 13.1377 81.3794 13.0844 81.0491 13.0844C80.5981 13.0844 80.2217 13.1856 79.9199 13.3881C79.618 13.5869 79.4671 13.8444 79.4671 14.1604C79.4671 14.4339 79.5683 14.654 79.7707 14.8209C79.9731 14.9878 80.2998 15.1246 80.7508 15.2311L82.0506 15.5294C82.8034 15.7034 83.3645 15.9715 83.7338 16.3337C84.1031 16.6959 84.2878 17.1665 84.2878 17.7453C84.2878 18.2354 84.1457 18.6721 83.8616 19.0557C83.5811 19.4356 83.1887 19.7339 82.6844 19.9506C82.1837 20.1672 81.6031 20.2755 80.9426 20.2755C80.0264 20.2755 79.2789 20.0802 78.7001 19.6895C78.1212 19.2954 77.7661 18.7361 77.6347 18.0116L79.1741 17.7773C79.27 18.1785 79.4671 18.4822 79.7654 18.6881C80.0637 18.8905 80.4525 18.9917 80.932 18.9917C81.454 18.9917 81.8712 18.8834 82.1837 18.6668C82.4962 18.4466 82.6525 18.1785 82.6525 17.8625C82.6525 17.6068 82.5566 17.392 82.3648 17.218C82.1766 17.0439 81.8872 16.9126 81.4966 16.8238L80.1116 16.5202C79.3481 16.3461 78.7835 16.0692 78.4177 15.6892C78.0555 15.3092 77.8744 14.828 77.8744 14.2456C77.8744 13.7627 78.0094 13.3401 78.2793 12.9779C78.5491 12.6157 78.922 12.3334 79.3979 12.1309C79.8737 11.925 80.4188 11.822 81.0332 11.822C81.9174 11.822 82.6134 12.0138 83.1212 12.3973C83.629 12.7773 83.9646 13.2868 84.128 13.926Z" fill="#0A7CFF"/>
</svg>
