<svg width="120" height="31" viewBox="0 0 120 31" fill="none" xmlns="http://www.w3.org/2000/svg">
<path d="M47.0207 5.20503C46.4965 4.78165 45.8311 4.53971 45.0045 4.49939H41.7787C40.8109 4.53971 40.0851 4.80181 39.6415 5.28568C39.198 5.76955 38.9762 6.3139 38.9762 6.95906V13.0881C38.9762 13.7534 39.319 14.2574 39.9641 14.5598C40.4883 14.8018 41.0125 14.9227 41.5166 14.9227H44.4803C45.3271 14.9227 45.5287 15.0639 45.5489 15.0639C45.5892 15.1042 45.69 15.1848 45.69 15.4671V21.0316C45.69 21.4147 45.6094 21.7171 45.4682 21.9187C45.3271 22.1203 44.9642 22.1606 44.7021 22.1606H42.2424C41.4964 22.1606 41.3351 21.9792 41.315 21.959C41.2141 21.838 41.1133 21.576 41.1133 21.0518V17.1606H38.9561V21.7372C38.9561 22.3219 39.2383 22.8461 39.8028 23.2897C40.327 23.713 40.9924 23.955 41.819 23.9953H45.0448C46.0126 23.955 46.7384 23.6929 47.182 23.209C47.6255 22.7251 47.8473 22.1808 47.8473 21.5356V14.8824C47.8473 14.5598 47.7263 14.2574 47.5045 14.0357C47.3231 13.8542 47.1215 13.6727 46.8997 13.5316C46.6779 13.3905 46.4158 13.2897 46.1537 13.209C45.8715 13.1284 45.6497 13.0881 45.4682 13.0881H42.0004C41.4158 13.0881 41.2545 13.0074 41.2343 13.0276C41.1738 12.9066 41.1335 12.7252 41.1335 12.4832V7.44293C41.1335 7.05987 41.194 6.73729 41.3351 6.53567C41.4359 6.39455 41.7182 6.3139 42.1214 6.3139H44.5811C45.2868 6.3139 45.4682 6.47519 45.5086 6.53567C45.6497 6.71712 45.7102 7.0397 45.7102 7.46309V11.3139H47.8675V6.75745C47.8675 6.17277 47.5852 5.64858 47.0207 5.20503Z" fill="white"/>
<path d="M61.3125 5.20528C60.7883 4.78189 60.123 4.53996 59.2964 4.49963H56.0907C55.1028 4.49963 54.377 4.76173 53.9334 5.26576C53.4898 5.74963 53.2681 6.31414 53.2681 6.9593V21.5359C53.2681 22.1206 53.4697 22.6649 53.8931 23.1689C54.3165 23.673 55.0423 23.9552 56.0302 23.9955H59.5383H59.5585C60.4053 23.9552 61.0504 23.7133 61.494 23.2496C61.9375 22.7859 62.1795 22.2617 62.1795 21.6972V6.77785C62.1593 6.17302 61.877 5.64882 61.3125 5.20528ZM60.002 7.46333V20.9915C60.002 21.4149 59.9214 21.7375 59.8004 21.9189C59.7601 21.9794 59.5786 22.1407 58.873 22.1407H56.9173C55.9294 22.1407 55.6875 21.9391 55.6471 21.8988C55.4858 21.7173 55.4052 21.4149 55.4052 21.0117V7.44317C55.4052 7.08027 55.506 6.81818 55.6875 6.61656C55.8891 6.41495 56.1108 6.31414 56.3931 6.31414H58.8528C59.5585 6.31414 59.7399 6.47543 59.7802 6.53592C59.9214 6.71737 60.002 7.03995 60.002 7.46333Z" fill="white"/>
<path d="M75.5864 5.20528C75.0622 4.78189 74.3969 4.53996 73.5703 4.49963H70.3646C69.4977 4.49963 68.792 4.74157 68.288 5.2456C67.7839 5.74963 67.542 6.31414 67.542 6.9593V21.5359C67.542 22.1206 67.7436 22.6649 68.167 23.1689C68.5904 23.673 69.296 23.9552 70.3041 23.9955H73.8122C74.659 23.9552 75.3042 23.7133 75.7679 23.2496C76.2115 22.7859 76.4534 22.2617 76.4534 21.6972V17.1609H74.2961V21.0117C74.2961 21.4351 74.2155 21.7576 74.0945 21.9391C74.0542 21.9996 73.8727 22.1609 73.1671 22.1609H71.292C70.3444 22.1609 70.0622 21.9794 69.9815 21.8988C69.8001 21.7173 69.7194 21.4149 69.7194 21.0318V7.44317C69.7194 7.08027 69.8202 6.81818 70.0017 6.61656C70.2033 6.41495 70.4251 6.31414 70.7074 6.31414H73.1671C73.913 6.31414 74.0743 6.4956 74.0945 6.51576C74.1953 6.63672 74.2961 6.89882 74.2961 7.42301V11.294H76.4534V6.75769C76.4332 6.17302 76.151 5.64882 75.5864 5.20528Z" fill="white"/>
<path d="M91.112 4.49963H88.7329L83.9748 12.8464V4.49963H81.8376V23.9754H83.9748V16.7375L85.1441 14.802L88.9144 23.9754H91.1724L86.5554 12.6044L91.112 4.49963Z" fill="white"/>
<path d="M96.3374 23.9754H105.269V22.1407H98.4947V14.8625H104.503V13.048H98.4947V6.31414H105.269V4.49963H96.3374V23.9754Z" fill="white"/>
<path d="M110.651 4.49963V6.31414H114.038V23.9754H116.236V6.31414H119.623V4.49963H110.651Z" fill="white"/>
<path d="M12.383 9.81404C12.383 8.80598 11.5564 7.97937 10.5483 7.97937C9.54025 7.97937 8.71362 8.80598 8.71362 9.81404C8.71362 10.8221 9.54025 11.6487 10.5483 11.6487C11.5564 11.6487 12.383 10.8221 12.383 9.81404Z" fill="white"/>
<path d="M22.8122 9.81404C22.8122 8.80598 21.9856 7.97937 20.9775 7.97937C19.9694 7.97937 19.1428 8.80598 19.1428 9.81404C19.1428 10.8221 19.9694 11.6487 20.9775 11.6487C21.9856 11.6487 22.8122 10.8221 22.8122 9.81404Z" fill="white"/>
<path d="M30.2884 28.5717H28.1513V26.8983H30.2884C30.6715 26.8983 30.9739 26.5959 30.9739 26.2128C30.9739 25.8298 30.6715 25.5274 30.2884 25.5274H28.1513V25.2854C28.1513 24.9024 27.8489 24.5999 27.4658 24.5999C25.7521 24.5999 24.5222 25.3661 24.0787 26.6362C24.0182 26.6161 23.9577 26.5959 23.8771 26.5959H2.96956V3.18865H28.232V19.3177C28.232 19.9427 28.7562 20.4669 29.3812 20.4669C30.0062 20.4669 30.5304 19.9628 30.5304 19.3177V2.03945C30.5304 1.41445 30.0062 0.890259 29.3812 0.890259H1.82035C1.19534 0.890259 0.671143 1.39429 0.671143 2.03945V27.7451C0.671143 28.3701 1.17518 28.8943 1.82035 28.8943H23.8771C23.9376 28.8943 23.998 28.8741 24.0585 28.854C24.5626 30.3257 26.0545 30.8903 27.4658 30.8903C27.8489 30.8903 28.1513 30.5878 28.1513 30.2048V29.9628H30.2884C30.6715 29.9628 30.9739 29.6604 30.9739 29.2774C30.9739 28.8943 30.6715 28.5717 30.2884 28.5717ZM26.7803 29.4588C26.0344 29.3177 25.2481 28.8943 25.2481 27.7451C25.2481 26.5757 26.0344 26.1725 26.7803 26.0314V29.4588Z" fill="white"/>
<path d="M16.0951 20.1056C14.0587 20.1056 12.3853 19.8032 12.2845 19.8032C11.599 19.6822 11.1555 19.0371 11.2764 18.3516C11.3974 17.6661 12.0224 17.2226 12.7281 17.3435C12.7684 17.3435 16.1959 17.9484 18.8774 17.3435C19.5628 17.2024 20.2282 17.6258 20.3693 18.2911C20.5104 18.9766 20.087 19.6419 19.4217 19.783C18.3128 20.025 17.1636 20.1056 16.0951 20.1056Z" fill="white"/>
</svg>
