<svg width="175" height="40" viewBox="0 0 175 40" fill="none" xmlns="http://www.w3.org/2000/svg">
<path d="M23.6475 31.0416V8.51673C23.6475 7.65926 24.6746 7.21937 25.2953 7.81108L40.6676 22.4677C41.1536 22.931 41.0368 23.7354 40.4391 24.0413L25.0667 31.9096C24.4179 32.2417 23.6475 31.7706 23.6475 31.0416Z" fill="url(#paint0_linear_431_1909)"/>
<path d="M43.147 8.25107V30.776C43.147 31.6335 42.1198 32.0734 41.4992 31.4817L26.1268 16.8251C25.6409 16.3617 25.7577 15.5574 26.3553 15.2514L41.7278 7.38316C42.3765 7.05108 43.147 7.52225 43.147 8.25107Z" fill="url(#paint1_linear_431_1909)"/>
<path d="M67.2239 11.9932V27.7982H64.2497V11.9932H67.2239ZM72.1304 11.9932V14.3488H59.3975V11.9932H72.1304Z" fill="white"/>
<path d="M85.0366 25.4535V27.7982H76.6348V25.4535H85.0366ZM77.5467 11.9932V27.7982H74.5615V11.9932H77.5467ZM83.9403 18.5171V20.8075H76.6348V18.5171H83.9403ZM85.0041 11.9932V14.3488H76.6348V11.9932H85.0041Z" fill="white"/>
<path d="M96.8031 22.5986H99.7882C99.7086 23.6551 99.4155 24.5923 98.909 25.41C98.4024 26.2206 97.6968 26.8574 96.7922 27.3205C95.8876 27.7837 94.7913 28.0153 93.5031 28.0153C92.5117 28.0153 91.618 27.8416 90.8219 27.4942C90.0331 27.1396 89.3565 26.6367 88.792 25.9854C88.2348 25.3268 87.8079 24.538 87.5112 23.619C87.2144 22.6927 87.0661 21.6542 87.0661 20.5036V19.2987C87.0661 18.148 87.2181 17.1096 87.522 16.1833C87.826 15.257 88.2602 14.4682 88.8246 13.8169C89.3963 13.1583 90.0802 12.6518 90.8762 12.2972C91.6795 11.9426 92.5768 11.7653 93.5683 11.7653C94.8564 11.7653 95.9455 12.0041 96.8356 12.4817C97.7257 12.9521 98.4169 13.5998 98.909 14.4247C99.401 15.2497 99.6978 16.1977 99.7991 17.2688H96.8139C96.756 16.603 96.6113 16.0385 96.3797 15.5754C96.1554 15.1122 95.8153 14.7613 95.3593 14.5224C94.9107 14.2764 94.3136 14.1534 93.5683 14.1534C92.9893 14.1534 92.4791 14.2619 92.0377 14.479C91.6035 14.6961 91.2417 15.0218 90.9522 15.456C90.6627 15.8829 90.4456 16.4185 90.3009 17.0625C90.1562 17.6993 90.0838 18.4375 90.0838 19.2769V20.5036C90.0838 21.3068 90.1489 22.0269 90.2792 22.6637C90.4095 23.3006 90.6121 23.8397 90.8871 24.2811C91.1621 24.7226 91.5167 25.0591 91.9509 25.2906C92.3851 25.5222 92.9025 25.638 93.5031 25.638C94.234 25.638 94.8275 25.5222 95.2834 25.2906C95.7465 25.0591 96.0975 24.7189 96.3363 24.2703C96.5824 23.8216 96.7379 23.2644 96.8031 22.5986Z" fill="white"/>
<path d="M113.031 18.5171V20.8618H104.716V18.5171H113.031ZM105.53 11.9932V27.7982H102.545V11.9932H105.53ZM115.245 11.9932V27.7982H112.26V11.9932H115.245Z" fill="white"/>
<path d="M123.451 27.7982H120.043L120.065 25.4535H123.451C124.37 25.4535 125.141 25.2508 125.763 24.8456C126.386 24.4331 126.856 23.8433 127.175 23.0762C127.493 22.3019 127.652 21.3756 127.652 20.2973V19.4832C127.652 18.651 127.562 17.9165 127.381 17.2796C127.2 16.6428 126.932 16.1073 126.578 15.6731C126.23 15.2389 125.8 14.9096 125.286 14.6853C124.772 14.4609 124.182 14.3488 123.516 14.3488H119.978V11.9932H123.516C124.573 11.9932 125.535 12.1705 126.404 12.5251C127.28 12.8797 128.036 13.3899 128.673 14.0557C129.317 14.7142 129.809 15.503 130.149 16.4221C130.496 17.3411 130.67 18.3687 130.67 19.5049V20.2973C130.67 21.4262 130.496 22.4539 130.149 23.3802C129.809 24.2992 129.317 25.088 128.673 25.7466C128.036 26.4051 127.276 26.9117 126.393 27.2663C125.51 27.6209 124.53 27.7982 123.451 27.7982ZM121.715 11.9932V27.7982H118.729V11.9932H121.715Z" fill="white"/>
<path d="M146.453 19.494V20.3082C146.453 21.5022 146.294 22.5769 145.975 23.5321C145.657 24.4801 145.204 25.287 144.618 25.9528C144.032 26.6186 143.334 27.1288 142.523 27.4834C141.713 27.838 140.812 28.0153 139.82 28.0153C138.843 28.0153 137.946 27.838 137.128 27.4834C136.318 27.1288 135.616 26.6186 135.022 25.9528C134.429 25.287 133.969 24.4801 133.644 23.5321C133.318 22.5769 133.155 21.5022 133.155 20.3082V19.494C133.155 18.2928 133.318 17.2181 133.644 16.2701C133.969 15.3221 134.425 14.5152 135.012 13.8494C135.598 13.1764 136.296 12.6626 137.107 12.308C137.924 11.9534 138.822 11.7761 139.799 11.7761C140.79 11.7761 141.691 11.9534 142.502 12.308C143.312 12.6626 144.01 13.1764 144.597 13.8494C145.19 14.5152 145.646 15.3221 145.964 16.2701C146.29 17.2181 146.453 18.2928 146.453 19.494ZM143.435 20.3082V19.4723C143.435 18.6112 143.355 17.8549 143.196 17.2036C143.037 16.5451 142.802 15.9915 142.491 15.5428C142.179 15.0941 141.796 14.7576 141.34 14.5333C140.884 14.3017 140.37 14.1859 139.799 14.1859C139.22 14.1859 138.706 14.3017 138.257 14.5333C137.816 14.7576 137.439 15.0941 137.128 15.5428C136.817 15.9915 136.578 16.5451 136.412 17.2036C136.253 17.8549 136.173 18.6112 136.173 19.4723V20.3082C136.173 21.1621 136.253 21.9183 136.412 22.5769C136.578 23.2354 136.817 23.7926 137.128 24.2486C137.447 24.6972 137.83 25.0374 138.279 25.2689C138.728 25.5005 139.241 25.6163 139.82 25.6163C140.399 25.6163 140.913 25.5005 141.362 25.2689C141.81 25.0374 142.187 24.6972 142.491 24.2486C142.802 23.7926 143.037 23.2354 143.196 22.5769C143.355 21.9183 143.435 21.1621 143.435 20.3082Z" fill="white"/>
<path d="M158.675 22.5986H161.66C161.581 23.6551 161.288 24.5923 160.781 25.41C160.274 26.2206 159.569 26.8574 158.664 27.3205C157.76 27.7837 156.663 28.0153 155.375 28.0153C154.384 28.0153 153.49 27.8416 152.694 27.4942C151.905 27.1396 151.229 26.6367 150.664 25.9854C150.107 25.3268 149.68 24.538 149.383 23.619C149.086 22.6927 148.938 21.6542 148.938 20.5036V19.2987C148.938 18.148 149.09 17.1096 149.394 16.1833C149.698 15.257 150.132 14.4682 150.697 13.8169C151.268 13.1583 151.952 12.6518 152.748 12.2972C153.551 11.9426 154.449 11.7653 155.44 11.7653C156.728 11.7653 157.818 12.0041 158.708 12.4817C159.598 12.9521 160.289 13.5998 160.781 14.4247C161.273 15.2497 161.57 16.1977 161.671 17.2688H158.686C158.628 16.603 158.483 16.0385 158.252 15.5754C158.027 15.1122 157.687 14.7613 157.231 14.5224C156.783 14.2764 156.186 14.1534 155.44 14.1534C154.861 14.1534 154.351 14.2619 153.91 14.479C153.476 14.6961 153.114 15.0218 152.824 15.456C152.535 15.8829 152.318 16.4185 152.173 17.0625C152.028 17.6993 151.956 18.4375 151.956 19.2769V20.5036C151.956 21.3068 152.021 22.0269 152.151 22.6637C152.281 23.3006 152.484 23.8397 152.759 24.2811C153.034 24.7226 153.389 25.0591 153.823 25.2906C154.257 25.5222 154.774 25.638 155.375 25.638C156.106 25.638 156.699 25.5222 157.155 25.2906C157.619 25.0591 157.969 24.7189 158.208 24.2703C158.454 23.8216 158.61 23.2644 158.675 22.5986Z" fill="white"/>
<defs>
<linearGradient id="paint0_linear_431_1909" x1="32.4225" y1="7.70249" x2="24.1073" y2="32.068" gradientUnits="userSpaceOnUse">
<stop stop-color="#EC5413"/>
<stop offset="1" stop-color="#FFA34D"/>
</linearGradient>
<linearGradient id="paint1_linear_431_1909" x1="26.5721" y1="16.4778" x2="38.9994" y2="10.6134" gradientUnits="userSpaceOnUse">
<stop stop-color="#FFA34D"/>
<stop offset="1" stop-color="#EC5413"/>
</linearGradient>
</defs>
</svg>
