<svg width="126" height="41" viewBox="0 0 126 41" fill="none" xmlns="http://www.w3.org/2000/svg">
<path fill-rule="evenodd" clip-rule="evenodd" d="M35.2343 6.04371C34.9883 5.37641 34.5672 4.7876 34.0152 4.339C33.4632 3.89041 32.8007 3.59855 32.0971 3.49404L14.9374 0.931685C14.2383 0.826327 13.5237 0.922931 12.8777 1.21012C12.2318 1.4973 11.6813 1.9631 11.2913 2.55264L1.12231 17.9074C0.79923 18.3974 0.625538 18.9708 0.622359 19.5577C0.61918 20.1447 0.786651 20.7199 1.1044 21.2134L9.36569 33.9819C10.0324 35.0138 11.053 35.7666 12.2358 36.099L28.8681 40.7903C29.4594 40.9571 30.0902 40.9142 30.6534 40.6687C31.2165 40.4233 31.6774 39.9905 31.9576 39.4438L40.1167 23.5259C40.406 22.9623 40.5753 22.3448 40.6138 21.7125C40.6524 21.0801 40.5593 20.4466 40.3405 19.8521L35.2351 6.0452L35.2343 6.04371Z" fill="#DC281E"/>
<path fill-rule="evenodd" clip-rule="evenodd" d="M27.049 9.4355C28.0294 9.60408 28.2509 10.685 27.5273 11.8479C27.2466 12.3092 26.8727 12.7067 26.4295 13.015C25.9862 13.3233 25.4834 13.5356 24.9533 13.6382C23.4219 15.1142 21.8904 16.5914 20.359 18.0699C20.2441 19.5268 18.3222 21.323 16.8793 21.0112C15.2446 20.6569 16.322 18.5242 17.1523 17.7454L16.8285 15.2226C16.647 15.2593 16.4597 15.2564 16.2795 15.2141C16.0992 15.1717 15.9302 15.0909 15.784 14.9772L12.1484 17.0166C11.7157 18.1468 10.187 19.5596 8.92984 19.2873C8.03455 19.0934 7.89205 18.0319 8.60082 16.91C8.91072 16.4262 9.31709 16.0115 9.79454 15.6918L10.5458 12.6789C10.5093 12.6752 10.4712 12.6692 10.4377 12.6625C9.54909 12.4917 9.40062 11.4578 10.0997 10.3553C10.4591 9.79506 10.9471 9.32882 11.5232 8.99538L12.326 6.23535C11.662 5.95487 11.5665 5.09703 12.2223 4.06463C12.8781 3.03222 14.1859 2.2072 15.0782 2.3452C15.9706 2.4832 16.1429 3.48726 15.4468 4.58306C15.1122 5.10322 14.6669 5.54311 14.1427 5.87133L13.3026 8.76115C13.8994 9.0931 13.939 9.99496 13.3317 10.9528C13.0854 11.339 12.7771 11.682 12.4192 11.968L11.6045 15.2368C11.6733 15.2567 11.7398 15.2837 11.803 15.3173L15.7385 13.1086C15.7843 13.0186 15.836 12.9281 15.8937 12.8371C16.6047 11.7069 17.9305 10.9304 18.8676 11.1012C19.8046 11.272 19.9941 12.335 19.2786 13.4778C19.0394 13.8547 18.7411 14.1906 18.3953 14.4729C18.4983 15.2686 18.6005 16.0623 18.7019 16.854C18.9007 16.8017 19.1062 16.7803 19.3115 16.7906L23.5641 12.6879C23.5362 12.1627 23.6837 11.6431 23.9834 11.2109C24.7019 10.0621 26.0724 9.26542 27.0498 9.43401L27.049 9.4355ZM34.8328 11.9165C35.2805 10.9774 35.9378 11.1773 36.3026 12.3246C36.6561 13.5292 36.6134 14.8154 36.181 15.9939C35.755 16.9152 35.1051 16.7891 34.7284 15.6896C34.3432 14.4557 34.38 13.1287 34.8328 11.918V11.9165ZM36.1713 21.796C36.5853 20.8814 37.1882 20.9568 37.5194 21.9369C37.8368 23.0311 37.791 24.1987 37.3889 25.2646C36.9927 26.1598 36.3981 26.1471 36.0556 25.2094C35.7111 24.0907 35.7519 22.8888 36.1713 21.796ZM32.7968 21.0582C33.2489 20.0885 33.9286 20.1802 34.315 21.2275C34.6882 22.3837 34.6547 23.6326 34.2203 24.7671C33.7891 25.716 33.1198 25.6936 32.7207 24.6925C32.3142 23.5102 32.3406 22.2221 32.7953 21.0575L32.7968 21.0582ZM32.4983 29.9172C32.9378 28.9474 33.601 28.937 33.9786 29.8597C34.3421 30.9425 34.3106 32.1189 33.8898 33.1807C33.4712 34.1273 32.8184 34.2027 32.4282 33.3239C32.0328 32.2184 32.0578 31.0055 32.4983 29.9172ZM28.8933 27.1668C29.3783 26.1352 30.1325 26.1583 30.5772 27.1803C31.0062 28.3439 30.9881 29.6254 30.5265 30.7765C30.0654 31.7828 29.3245 31.832 28.8665 30.8638C28.3979 29.6742 28.4075 28.3495 28.8933 27.1668ZM25.1212 23.1708C25.6568 22.0787 26.5148 22.1525 27.0363 23.2998C27.5418 24.555 27.5418 25.9571 27.0363 27.2123C26.5283 28.2761 25.6882 28.2835 25.151 27.1982C24.8771 26.5628 24.7334 25.879 24.7283 25.1871C24.7232 24.4953 24.8567 23.8101 25.1212 23.1708ZM21.584 29.8344C22.7769 30.2299 23.7899 31.0373 24.4415 32.1118C24.9436 33.0606 24.493 33.5694 23.4626 33.2732C22.3136 32.8756 21.3347 32.0977 20.688 31.0682C20.1538 30.1193 20.5388 29.5539 21.584 29.8366V29.8344ZM22.342 35.2977C23.4225 35.6796 24.3458 36.4089 24.9675 37.3715C25.4263 38.1973 25.0085 38.6016 24.055 38.2942C23.0103 37.9113 22.1145 37.2059 21.4975 36.2802C21.011 35.4514 21.3736 34.9986 22.342 35.294V35.2977ZM16.2697 30.3252C17.3735 30.7184 18.3172 31.4636 18.9556 32.446C19.4734 33.3254 19.125 33.7991 18.1961 33.5216C17.1307 33.1274 16.2169 32.4072 15.5848 31.4635C15.0395 30.5781 15.3297 30.0611 16.2697 30.3252ZM14.4493 32.892C15.4694 33.2766 16.3467 33.9651 16.9628 34.8643C17.4642 35.6647 17.1628 36.078 16.307 35.8027C15.3197 35.4206 14.4673 34.7552 13.8569 33.8901C13.3347 33.0845 13.5846 32.6287 14.4493 32.892ZM9.08503 27.4816C10.1477 27.8794 11.0603 28.5979 11.6963 29.5375C12.2588 30.4095 12.0126 30.9003 11.1621 30.649C10.1349 30.2539 9.24916 29.5608 8.61873 28.6587C8.03306 27.7822 8.22779 27.2481 9.08503 27.4846V27.4816ZM4.01694 21.8788C5.13359 22.2885 6.0906 23.0434 6.74907 24.0338C7.37577 24.9872 7.17955 25.5638 6.33126 25.3392C5.2552 24.9291 4.32991 24.2004 3.67897 23.2506C3.02764 22.2928 3.16492 21.6691 4.01843 21.878L4.01694 21.8788Z" fill="white"/>
<path d="M54.4014 26.8903L50.9725 14.5266H52.9345L55.3432 24.1012H55.4579L57.9632 14.5266H59.9071L62.4124 24.1072H62.5271L64.9298 14.5266H66.8979L63.4629 26.8903H61.5854L58.9835 17.6296H58.8869L56.285 26.8903H54.4014ZM70.2393 27.0955C69.6517 27.0955 69.1205 26.9868 68.6456 26.7695C68.1707 26.5482 67.7944 26.2282 67.5167 25.8096C67.243 25.3911 67.1062 24.8779 67.1062 24.2702C67.1062 23.747 67.2068 23.3164 67.408 22.9783C67.6092 22.6403 67.8809 22.3726 68.223 22.1754C68.5651 21.9782 68.9474 21.8293 69.37 21.7287C69.7926 21.6281 70.2232 21.5516 70.6619 21.4993C71.2173 21.4349 71.6681 21.3826 72.0142 21.3423C72.3603 21.298 72.6118 21.2276 72.7688 21.131C72.9258 21.0344 73.0042 20.8775 73.0042 20.6601V20.6179C73.0042 20.0907 72.8553 19.6822 72.5575 19.3924C72.2637 19.1026 71.825 18.9577 71.2415 18.9577C70.6337 18.9577 70.1548 19.0926 69.8047 19.3622C69.4585 19.6278 69.2191 19.9236 69.0863 20.2496L67.3899 19.8633C67.5911 19.2998 67.8849 18.845 68.2713 18.4989C68.6617 18.1488 69.1104 17.8952 69.6175 17.7383C70.1246 17.5773 70.6579 17.4968 71.2173 17.4968C71.5876 17.4968 71.98 17.5411 72.3945 17.6296C72.8131 17.7141 73.2035 17.8711 73.5657 18.1005C73.9319 18.3299 74.2317 18.6579 74.4652 19.0845C74.6986 19.5071 74.8153 20.0565 74.8153 20.7326V26.8903H73.0525V25.6225H72.9801C72.8634 25.8559 72.6883 26.0853 72.4549 26.3107C72.2215 26.5361 71.9216 26.7232 71.5554 26.8721C71.1891 27.0211 70.7505 27.0955 70.2393 27.0955ZM70.6317 25.6467C71.1308 25.6467 71.5574 25.548 71.9116 25.3508C72.2697 25.1536 72.5414 24.8961 72.7265 24.5781C72.9157 24.2561 73.0103 23.912 73.0103 23.5458V22.3505C72.9459 22.4149 72.8211 22.4752 72.636 22.5316C72.4549 22.5839 72.2476 22.6302 72.0142 22.6704C71.7808 22.7067 71.5534 22.7409 71.332 22.7731C71.1107 22.8012 70.9255 22.8254 70.7766 22.8455C70.4265 22.8898 70.1065 22.9642 69.8167 23.0689C69.531 23.1735 69.3016 23.3244 69.1285 23.5217C68.9595 23.7148 68.875 23.9724 68.875 24.2944C68.875 24.7411 69.04 25.0792 69.37 25.3086C69.7 25.534 70.1206 25.6467 70.6317 25.6467ZM79.0246 14.5266V26.8903H77.2195V14.5266H79.0246ZM83.1131 23.745L83.101 21.5415H83.4149L87.1095 17.6175H89.2708L85.057 22.0849H84.7732L83.1131 23.745ZM81.4529 26.8903V14.5266H83.258V26.8903H81.4529ZM87.3087 26.8903L83.9884 22.4833L85.232 21.2216L89.5243 26.8903H87.3087ZM94.4399 27.0774C93.5706 27.0774 92.8119 26.8782 92.164 26.4797C91.516 26.0813 91.0129 25.5239 90.6547 24.8075C90.2965 24.0911 90.1174 23.254 90.1174 22.2962C90.1174 21.3343 90.2965 20.4931 90.6547 19.7727C91.0129 19.0523 91.516 18.4929 92.164 18.0944C92.8119 17.696 93.5706 17.4968 94.4399 17.4968C95.3092 17.4968 96.0678 17.696 96.7158 18.0944C97.3638 18.4929 97.8668 19.0523 98.225 19.7727C98.5832 20.4931 98.7623 21.3343 98.7623 22.2962C98.7623 23.254 98.5832 24.0911 98.225 24.8075C97.8668 25.5239 97.3638 26.0813 96.7158 26.4797C96.0678 26.8782 95.3092 27.0774 94.4399 27.0774ZM94.4459 25.5621C95.0094 25.5621 95.4762 25.4132 95.8465 25.1154C96.2167 24.8176 96.4904 24.4212 96.6675 23.9261C96.8486 23.4311 96.9392 22.8858 96.9392 22.2901C96.9392 21.6985 96.8486 21.1552 96.6675 20.6601C96.4904 20.1611 96.2167 19.7606 95.8465 19.4588C95.4762 19.1569 95.0094 19.006 94.4459 19.006C93.8784 19.006 93.4076 19.1569 93.0333 19.4588C92.663 19.7606 92.3873 20.1611 92.2062 20.6601C92.0291 21.1552 91.9406 21.6985 91.9406 22.2901C91.9406 22.8858 92.0291 23.4311 92.2062 23.9261C92.3873 24.4212 92.663 24.8176 93.0333 25.1154C93.4076 25.4132 93.8784 25.5621 94.4459 25.5621ZM108.394 17.6175L105.032 26.8903H103.1L99.7312 17.6175H101.669L104.017 24.7532H104.114L106.456 17.6175H108.394ZM113.772 27.0774C112.858 27.0774 112.071 26.8822 111.411 26.4918C110.755 26.0974 110.248 25.544 109.89 24.8317C109.536 24.1153 109.359 23.2761 109.359 22.3143C109.359 21.3645 109.536 20.5273 109.89 19.8029C110.248 19.0785 110.747 18.513 111.387 18.1065C112.031 17.7 112.784 17.4968 113.645 17.4968C114.168 17.4968 114.675 17.5833 115.166 17.7564C115.657 17.9294 116.098 18.2011 116.488 18.5714C116.879 18.9416 117.187 19.4226 117.412 20.0142C117.637 20.6018 117.75 21.3162 117.75 22.1573V22.7972H110.379V21.4449H115.981C115.981 20.97 115.885 20.5495 115.691 20.1832C115.498 19.813 115.227 19.5212 114.876 19.3079C114.53 19.0946 114.124 18.9879 113.657 18.9879C113.15 18.9879 112.707 19.1127 112.329 19.3622C111.955 19.6077 111.665 19.9297 111.459 20.3281C111.258 20.7225 111.158 21.1511 111.158 21.614V22.6704C111.158 23.2902 111.266 23.8175 111.484 24.2521C111.705 24.6868 112.013 25.0188 112.407 25.2482C112.802 25.4736 113.263 25.5863 113.79 25.5863C114.132 25.5863 114.444 25.538 114.725 25.4414C115.007 25.3408 115.251 25.1919 115.456 24.9947C115.661 24.7975 115.818 24.554 115.927 24.2642L117.635 24.5721C117.498 25.0752 117.253 25.5159 116.899 25.8942C116.549 26.2685 116.108 26.5602 115.577 26.7695C115.049 26.9748 114.448 27.0774 113.772 27.0774ZM119.753 26.8903V17.6175H121.497V19.0905H121.594C121.763 18.5915 122.061 18.1991 122.487 17.9133C122.918 17.6236 123.405 17.4787 123.948 17.4787C124.061 17.4787 124.194 17.4827 124.347 17.4908C124.504 17.4988 124.627 17.5089 124.715 17.5209V19.2475C124.643 19.2274 124.514 19.2052 124.329 19.1811C124.144 19.1529 123.958 19.1388 123.773 19.1388C123.347 19.1388 122.966 19.2294 122.632 19.4105C122.302 19.5876 122.041 19.8351 121.848 20.153C121.654 20.467 121.558 20.8252 121.558 21.2276V26.8903H119.753Z" fill="white"/>
</svg>
